<svg width="152" height="40" viewBox="0 0 152 40" fill="none" xmlns="http://www.w3.org/2000/svg">
<g clip-path="url(#clip0_2_8103)">
<path d="M45.7459 5.41821H40V11.0158H45.7459V5.41821Z" fill="#B4B6C4"/>
<path d="M45.6029 34.5817V14.4223H40.1637V34.5817H45.6029ZM81.7553 34.7809V29.8406C80.9578 29.8406 80.283 29.8008 79.7922 29.7211C79.2197 29.6414 78.7903 29.4422 78.504 29.1633C78.2177 28.8845 78.0337 28.4861 77.9314 27.9681C77.8497 27.4701 77.8088 26.8127 77.8088 26.0159V18.9641H81.7553V14.4223H77.8088V6.55378H72.3491V26.0558C72.3491 27.7092 72.4922 29.1036 72.7785 30.2191C73.0648 31.3147 73.5555 32.2111 74.2303 32.8884C74.9051 33.5657 75.8048 34.0438 76.8886 34.3426C77.9928 34.6414 79.3833 34.7809 81.0396 34.7809H81.7553ZM113 34.5817V5H107.54V34.5817H113ZM67.0939 16.3944C65.5807 14.8008 63.4541 14.004 60.755 14.004C59.4463 14.004 58.2603 14.2629 57.1765 14.7809C56.1132 15.2988 55.1931 16.0159 54.4774 16.9323L54.1707 17.3108V16.9721V14.4223H48.7928V34.5817H54.2116V23.8446V24.5817C54.2116 24.4621 54.2116 24.3426 54.2116 24.2231C54.2729 22.3307 54.7432 20.9363 55.6429 20.0398C56.604 19.0837 57.7695 18.6056 59.0987 18.6056C60.6732 18.6056 61.8796 19.0837 62.6771 20C63.4541 20.9163 63.8631 22.2112 63.8631 23.8645V23.9044V34.5617H69.3637V23.1275C69.3841 20.259 68.6071 17.988 67.0939 16.3944ZM104.719 24.4621C104.719 23.008 104.453 21.6534 103.942 20.3785C103.41 19.1235 102.674 18.008 101.754 17.0518C100.813 16.0956 99.6883 15.3586 98.3796 14.8207C97.0709 14.2829 95.6191 14.0239 94.0446 14.0239C92.5519 14.0239 91.141 14.3028 89.8323 14.8406C88.5236 15.3984 87.3785 16.1355 86.4174 17.0717C85.4564 18.008 84.6793 19.1235 84.1272 20.3984C83.5547 21.6733 83.2889 23.0478 83.2889 24.502C83.2889 25.9562 83.5547 27.3307 84.0863 28.6056C84.618 29.8805 85.3746 30.996 86.3152 31.9323C87.2558 32.8685 88.4214 33.6255 89.7709 34.1633C91.1205 34.7211 92.6132 35 94.2082 35C98.8295 35 101.692 32.9482 103.41 31.0359L99.4838 28.1275C98.6659 29.0837 96.7029 30.3785 94.2491 30.3785C92.7155 30.3785 91.4477 30.0398 90.4866 29.3426C89.5256 28.6653 88.8712 27.7092 88.5236 26.5339L88.4623 26.3546H104.719V24.4621ZM88.5032 22.6096C88.5032 21.1355 90.2412 18.5657 93.9833 18.5458C97.7253 18.5458 99.4838 21.1155 99.4838 22.5896L88.5032 22.6096Z" fill="#B4B6C4"/>
</g>
<defs>
<clipPath id="clip0_2_8103">
<rect width="73" height="30" fill="white" transform="translate(40 5)"/>
</clipPath>
</defs>
</svg>
