<svg width="152" height="40" viewBox="0 0 152 40" fill="none" xmlns="http://www.w3.org/2000/svg">
<path d="M55.4172 22.279L54.5828 24.6511H54.5132C54.3741 24.1162 54.1192 23.3022 53.702 22.3255L49.2285 11.0464H44.8477V29.0232H47.745V17.9301C47.745 17.2325 47.745 16.4418 47.7218 15.465C47.6986 14.9766 47.6523 14.6045 47.6291 14.3255H47.6986C47.8377 15.0232 48 15.5348 48.1159 15.8604L53.4934 28.9766H55.5331L60.8642 15.7441C60.9801 15.4418 61.096 14.8371 61.2119 14.3255H61.2814C61.2119 15.6511 61.1655 16.8371 61.1424 17.558V28.9534H64.2251V10.9999H60.0066L55.4172 22.279ZM67.1457 16.0697H70.1589V28.9534H67.1457V16.0697ZM68.6755 10.6278C68.1655 10.6278 67.7483 10.8139 67.4006 11.1394C67.053 11.465 66.8675 11.8836 66.8675 12.3952C66.8675 12.8836 67.053 13.3022 67.4006 13.6278C67.7483 13.9534 68.1655 14.1162 68.6755 14.1162C69.1854 14.1162 69.6258 13.9301 69.9503 13.6278C70.298 13.3022 70.4834 12.8836 70.4834 12.3952C70.4834 11.9069 70.298 11.4883 69.9503 11.1394C69.649 10.8139 69.2086 10.6278 68.6755 10.6278ZM80.8443 15.9534C80.2881 15.8371 79.7086 15.7673 79.1523 15.7673C77.7847 15.7673 76.5331 16.0697 75.49 16.6743C74.447 17.279 73.6126 18.1162 73.0794 19.1627C72.5232 20.2325 72.245 21.465 72.245 22.8836C72.245 24.1162 72.5232 25.2092 73.0563 26.2092C73.5894 27.1859 74.3311 27.9766 75.3278 28.5115C76.2781 29.0464 77.3907 29.3255 78.6424 29.3255C80.0794 29.3255 81.3079 29.0232 82.2814 28.465L82.3046 28.4418V25.6511L82.1887 25.7441C81.7483 26.0697 81.2384 26.3487 80.7285 26.5115C80.1953 26.6976 79.7086 26.7906 79.2914 26.7906C78.0861 26.7906 77.1357 26.4418 76.4636 25.6743C75.7682 24.9301 75.4205 23.9069 75.4205 22.6278C75.4205 21.3022 75.7682 20.2557 76.4867 19.4883C77.2053 18.7208 78.1556 18.3255 79.3145 18.3255C80.2881 18.3255 81.2848 18.6511 82.1887 19.3022L82.3046 19.3952V16.4418L82.2814 16.4185C81.8874 16.2557 81.447 16.0697 80.8443 15.9534ZM90.7881 15.8604C90.0463 15.8604 89.351 16.0929 88.7483 16.5813C88.2384 16.9999 87.8907 17.6045 87.5894 18.3255H87.5662V16.0697H84.553V28.9534H87.5662V22.372C87.5662 21.2557 87.798 20.3255 88.3079 19.6511C88.8179 18.9534 89.4669 18.6045 90.2549 18.6045C90.5331 18.6045 90.8112 18.6743 91.1589 18.7208C91.4834 18.8139 91.7152 18.9069 91.8775 19.0232L91.9934 19.1162V16.0929L91.9238 16.0697C91.7152 15.9301 91.298 15.8604 90.7881 15.8604ZM98.9934 15.7906C96.8841 15.7906 95.192 16.4185 94.0099 17.6511C92.8046 18.8836 92.2251 20.5813 92.2251 22.7208C92.2251 24.7208 92.8278 26.3487 93.9867 27.5348C95.1457 28.6976 96.7218 29.3022 98.692 29.3022C100.755 29.3022 102.401 28.6743 103.583 27.4185C104.788 26.1627 105.368 24.4883 105.368 22.4185C105.368 20.372 104.811 18.7441 103.675 17.558C102.586 16.372 100.987 15.7906 98.9934 15.7906ZM101.404 25.6976C100.848 26.4185 99.9669 26.7673 98.8775 26.7673C97.7881 26.7673 96.9073 26.4185 96.2814 25.6511C95.6556 24.9301 95.3543 23.8836 95.3543 22.558C95.3543 21.1859 95.6788 20.1394 96.2814 19.3952C96.9073 18.6511 97.7649 18.279 98.8543 18.279C99.9205 18.279 100.755 18.6278 101.358 19.3487C101.96 20.0697 102.285 21.1162 102.285 22.4883C102.238 23.8836 101.983 24.9766 101.404 25.6976ZM112.089 21.4185C111.139 21.0232 110.536 20.7208 110.258 20.465C110.026 20.2325 109.911 19.9069 109.911 19.4883C109.911 19.1394 110.05 18.7906 110.397 18.558C110.745 18.3255 111.139 18.2092 111.719 18.2092C112.228 18.2092 112.762 18.3022 113.272 18.4418C113.781 18.5813 114.245 18.7906 114.616 19.0697L114.732 19.1627V16.3255L114.662 16.3022C114.315 16.1627 113.851 16.0232 113.295 15.9069C112.738 15.8139 112.228 15.7673 111.811 15.7673C110.374 15.7673 109.192 16.1162 108.265 16.8836C107.338 17.6045 106.897 18.5813 106.897 19.7208C106.897 20.3255 106.99 20.8604 107.199 21.3022C107.407 21.7441 107.709 22.1627 108.126 22.5115C108.543 22.8371 109.146 23.2092 109.98 23.558C110.675 23.8604 111.209 24.0929 111.533 24.279C111.858 24.465 112.066 24.6743 112.228 24.8371C112.344 25.0232 112.414 25.2557 112.414 25.558C112.414 26.4185 111.765 26.8371 110.444 26.8371C109.934 26.8371 109.401 26.7441 108.775 26.5348C108.149 26.3255 107.57 26.0232 107.083 25.6743L106.967 25.5813V28.5348L107.036 28.558C107.477 28.7673 108.01 28.9069 108.659 29.0697C109.308 29.1859 109.887 29.279 110.397 29.279C111.95 29.279 113.225 28.9301 114.129 28.1627C115.056 27.4185 115.543 26.465 115.543 25.2325C115.543 24.372 115.311 23.6045 114.801 23.0232C114.129 22.465 113.295 21.8836 112.089 21.4185ZM123.493 15.7906C121.384 15.7906 119.692 16.4185 118.51 17.6511C117.328 18.8836 116.725 20.5813 116.725 22.7208C116.725 24.7208 117.328 26.3487 118.487 27.5348C119.646 28.6976 121.222 29.3022 123.192 29.3022C125.255 29.3022 126.901 28.6743 128.083 27.4185C129.288 26.1627 129.868 24.4883 129.868 22.4185C129.868 20.372 129.311 18.7441 128.175 17.558C127.086 16.372 125.487 15.7906 123.493 15.7906ZM125.881 25.6976C125.324 26.4185 124.444 26.7673 123.354 26.7673C122.242 26.7673 121.384 26.4185 120.758 25.6511C120.132 24.9301 119.831 23.8836 119.831 22.558C119.831 21.1859 120.156 20.1394 120.758 19.3952C121.384 18.6511 122.242 18.279 123.331 18.279C124.374 18.279 125.232 18.6278 125.834 19.3487C126.437 20.0697 126.762 21.1162 126.762 22.4883C126.762 23.8836 126.46 24.9766 125.881 25.6976ZM145.977 18.558V16.0697H142.94V12.2557L142.848 12.279L139.974 13.1394L139.904 13.1627V16.0697H135.361V14.4418C135.361 13.6976 135.546 13.1162 135.871 12.7441C136.195 12.372 136.682 12.1859 137.285 12.1859C137.702 12.1859 138.142 12.279 138.629 12.4883L138.745 12.558V9.93013L138.675 9.90687C138.258 9.76734 137.702 9.67432 136.983 9.67432C136.079 9.67432 135.291 9.88362 134.573 10.2325C133.854 10.6278 133.321 11.1627 132.927 11.8836C132.533 12.5813 132.324 13.372 132.324 14.279V16.0697H130.215V18.5348H132.324V28.9534H135.361V18.558H139.904V25.1859C139.904 27.9069 141.179 29.279 143.728 29.279C144.146 29.279 144.586 29.2092 145.003 29.1394C145.444 29.0464 145.768 28.9301 145.954 28.8371L145.977 28.8138V26.3255L145.861 26.4185C145.675 26.5348 145.513 26.6278 145.235 26.6976C145.003 26.7673 144.795 26.7906 144.632 26.7906C144.03 26.7906 143.613 26.6511 143.311 26.3022C143.033 25.9766 142.894 25.4418 142.894 24.6511V18.558H145.977Z" fill="#B4B6C4"/>
<path d="M6 5H20.2086V19.2558H6V5Z" fill="#B4B6C4"/>
<path d="M21.692 5H35.9006V19.2558H21.692V5Z" fill="#B4B6C4"/>
<path d="M6 20.7441H20.2086V35H6V20.7441Z" fill="#B4B6C4"/>
<path d="M21.692 20.7441H35.9006V35H21.692V20.7441Z" fill="#B4B6C4"/>
</svg>
