<svg width="152" height="40" viewBox="0 0 152 40" fill="none" xmlns="http://www.w3.org/2000/svg">
<g clip-path="url(#clip0_2_8099)">
<path d="M34.6753 33.0663C32.9604 33.3595 31.2154 33.4474 29.4102 33.6816L23.9041 17.9786V34.3555C22.1892 34.5313 20.6247 34.7656 19 35V5H23.5734L29.8313 22.0217V5H34.6753V33.0663ZM44.1528 15.9863C46.0183 15.9863 48.8766 15.8984 50.5915 15.8984V20.5858C48.4552 20.5858 45.9581 20.5858 44.1528 20.6737V27.6465C46.9811 27.4708 49.8093 27.2362 52.6674 27.1483V31.6597L39.3388 32.6854V5H52.6674V9.68751H44.1528V15.9863ZM70.5692 9.68762H65.5748V31.2501C63.9501 31.2501 62.3253 31.2501 60.7611 31.3085V9.68762H55.7667V5H70.5694L70.5692 9.68762ZM78.3918 15.6642H84.981V20.3516H78.3918V30.9864H73.6678V5H87.1171V9.68751H78.3918V15.6642ZM94.9397 26.8848C97.6777 26.9432 100.446 27.1486 103.123 27.2948V31.9238C98.821 31.66 94.5185 31.3966 90.1259 31.3085V5H94.9397V26.8848ZM107.185 32.2461C108.72 32.3341 110.344 32.422 111.909 32.5975V5H107.185V32.2461ZM133 5L126.892 19.2676L133 35C131.195 34.7656 129.389 34.4433 127.584 34.1503L124.124 25.4786L120.604 33.4474C118.859 33.1542 117.174 33.0663 115.429 32.8319L121.627 19.0917L116.031 5H121.206L124.365 12.8809L127.735 5H133V5Z" fill="#B4B6C4"/>
</g>
<defs>
<clipPath id="clip0_2_8099">
<rect width="114" height="30" fill="white" transform="translate(19 5)"/>
</clipPath>
</defs>
</svg>
