<svg width="152" height="40" viewBox="0 0 152 40" fill="none" xmlns="http://www.w3.org/2000/svg">
<path d="M50.6824 14.5389C50.7014 14.6432 50.6349 14.719 50.597 14.8011C50.2395 15.5657 49.92 16.3429 49.6574 17.1422C49.4107 17.9004 49.2146 18.6681 49.107 19.4579C48.9583 20.5732 48.9583 21.6852 49.2494 22.7815C49.6922 24.4528 50.6855 25.6975 52.1976 26.5347C53.0074 26.9834 53.8837 27.2456 54.7979 27.3941C55.5603 27.5173 56.3258 27.5299 57.0945 27.4825C57.8695 27.4352 58.6319 27.2835 59.3848 27.0813C62.3583 26.2725 65.3351 25.4701 68.3118 24.6613C71.1493 23.8936 73.99 23.1227 76.8276 22.355C78.6813 21.8527 80.535 21.3535 82.3856 20.8543C82.4647 20.8322 82.5469 20.8069 82.6228 20.7817C82.626 20.709 82.5754 20.728 82.5469 20.7248C82.433 20.7216 82.3192 20.7216 82.2053 20.7216C80.4148 20.7248 78.6244 20.7248 76.8307 20.728C76.7263 20.728 76.6219 20.728 76.5397 20.728C76.448 20.6553 76.4638 20.5763 76.4638 20.5036C76.4385 19.4074 76.4163 18.3079 76.3879 17.2117C76.3625 16.1817 76.3278 15.1486 76.2993 14.1187C76.293 13.8533 76.2898 13.5879 76.2835 13.3226C76.2835 13.2467 76.2771 13.1741 76.274 13.0919C76.1759 13.1014 76.1759 13.1772 76.1538 13.2341C75.8691 13.9765 75.5875 14.719 75.306 15.4614C74.6733 17.1232 74.0438 18.785 73.4111 20.4468C73.3763 20.5352 73.3384 20.6205 73.3036 20.7058C73.0695 20.7374 69.1754 20.7406 68.916 20.709C68.9223 20.6743 68.9255 20.6363 68.9381 20.6016C71.2379 14.4252 73.5345 8.24873 75.8311 2.08494C76.0684 2.05335 79.9403 2.05019 80.263 2.07546C80.2978 2.16076 80.2472 2.23343 80.2187 2.30925C79.9371 3.05168 79.6524 3.79412 79.3709 4.53655C79.0293 5.42748 78.6908 6.32156 78.3523 7.21564C78.3207 7.30094 78.2574 7.37992 78.289 7.49998C78.4978 7.31674 78.6433 7.09559 78.8142 6.89655C78.9818 6.70383 79.14 6.50164 79.3045 6.30576C79.4721 6.10041 79.643 5.89821 79.8106 5.69286C79.9783 5.4875 80.1491 5.28531 80.3168 5.07995C80.4812 4.88408 80.6426 4.68504 80.8039 4.48917C80.9716 4.28381 81.1424 4.08162 81.31 3.87626C81.4777 3.67091 81.6485 3.46871 81.8162 3.26336C81.9775 3.06748 82.142 2.86844 82.3033 2.67257C82.471 2.47037 82.6418 2.26818 82.8126 2.06282C87.2793 2.06282 91.7302 2.06282 96.1842 2.06282C96.2095 2.06282 96.2348 2.07862 96.2759 2.09126C96.2601 2.14181 96.2506 2.18604 96.2348 2.22711C95.8647 3.19701 95.4946 4.17008 95.1276 5.12734C95.0106 5.18421 94.903 5.1621 94.8018 5.1621C93.5238 5.16525 92.2426 5.1621 90.9646 5.1621C90.8602 5.1621 90.759 5.16842 90.6641 5.16842C90.5281 5.41168 89.2691 8.82057 89.2216 9.07015C89.3165 9.12386 89.4209 9.09858 89.519 9.09858C90.6926 9.10174 91.8694 9.09858 93.043 9.09858C93.1474 9.09858 93.2486 9.09858 93.3435 9.09858C93.4194 9.18704 93.3688 9.25655 93.3435 9.32289C93.0841 10.0148 92.8279 10.7035 92.5685 11.3954C92.4482 11.7145 92.328 12.0336 92.2078 12.3495C92.1825 12.419 92.1477 12.4885 92.1224 12.5485C92.0117 12.6086 91.9073 12.5864 91.8029 12.5864C90.6008 12.5896 89.3956 12.5864 88.1935 12.5864C88.0923 12.5864 87.9879 12.5896 87.8898 12.5928C87.8614 12.6433 87.8361 12.6717 87.8234 12.7065C87.2888 14.1313 86.7574 15.5593 86.2227 16.9842C86.2133 17.0095 86.2164 17.0379 86.2164 17.0758C86.3113 17.1358 86.4189 17.1074 86.5169 17.1074C87.9942 17.1106 89.4747 17.1074 90.952 17.1106C91.0564 17.1106 91.1576 17.1137 91.2841 17.1169C91.2746 17.1959 91.2778 17.2622 91.2557 17.3191C91.1481 17.6318 91.0342 17.9415 90.9235 18.2542C90.895 18.3332 90.8666 18.4122 90.8413 18.4943C90.9172 18.5638 90.9931 18.5228 91.0595 18.507C91.417 18.4122 91.7713 18.3143 92.1287 18.2195C96.1715 17.1264 100.217 16.0332 104.26 14.9401C106.313 14.3841 108.366 13.8281 110.422 13.2752C110.524 13.2467 110.625 13.2215 110.726 13.212C110.789 13.2057 110.859 13.2183 110.919 13.2341C111.008 13.2594 111.024 13.3384 110.967 13.4142C110.897 13.5121 110.799 13.5658 110.695 13.6132C110.549 13.6796 110.4 13.7427 110.252 13.8059C103.264 16.8325 96.2759 19.8592 89.2849 22.8826C83.2144 25.508 77.1439 28.127 71.0702 30.7429C67.7519 32.1709 64.4272 33.5895 61.1025 35.0048C59.6853 35.6114 58.2555 36.1896 56.8035 36.7108C55.7153 37.0994 54.6144 37.4343 53.4788 37.6681C52.8746 37.7913 52.2672 37.8829 51.6567 37.943C51.0398 38.003 50.4261 38.0156 49.8124 37.9809C48.0251 37.8798 46.3739 37.3553 44.8966 36.3317C44.5929 36.1232 44.3019 35.8926 44.0172 35.6588C43.0682 34.869 42.4608 33.8643 42.1824 32.6638C42.0148 31.9403 41.9673 31.2074 42.0211 30.4649C42.1128 29.1886 42.4386 27.9691 42.8752 26.7749C43.4066 25.3216 44.0962 23.9441 44.8649 22.6046C45.9342 20.7469 47.1394 18.984 48.4459 17.2843C49.0975 16.4376 49.7808 15.6099 50.4514 14.779C50.521 14.6937 50.5717 14.5863 50.6887 14.5484L50.6824 14.5389ZM80.8703 19.3063C80.8893 19.3094 80.9083 19.3126 80.9241 19.3158C80.9684 19.202 81.0159 19.0914 81.057 18.9777C82.7367 14.501 84.4165 10.0211 86.0962 5.54437C86.4347 4.64081 86.7732 3.74041 87.1085 2.83685C87.1401 2.75471 87.1939 2.67257 87.1686 2.55252C87.099 2.61886 87.0421 2.66625 86.9946 2.71996C86.6118 3.14014 86.2291 3.56033 85.8463 3.97736C84.1507 5.83819 82.4552 7.69901 80.7565 9.55668C80.6331 9.69253 80.554 9.82522 80.5856 10.0085C80.5888 10.0274 80.5856 10.0464 80.5888 10.0653C80.6236 11.2469 80.6616 12.4285 80.6964 13.6101C80.7406 15.2181 80.7849 16.8262 80.8261 18.4312C80.8324 18.6586 80.8387 18.8861 80.8482 19.1104C80.8482 19.1799 80.8609 19.2431 80.8703 19.3063Z" fill="#B4B6C4"/>
<path d="M63.0954 20.7216C61.5042 20.7216 59.9415 20.7216 58.3599 20.7216C58.3535 20.6711 58.3409 20.6269 58.344 20.5858C58.382 19.9729 58.4231 19.36 58.4642 18.7439C58.4895 18.3364 58.5149 17.932 58.5402 17.5244C58.5686 17.0821 58.6003 16.6367 58.6287 16.1944C58.6477 15.9195 58.6635 15.6478 58.6825 15.373C58.7395 14.4852 58.7964 13.6006 58.8533 12.716C58.7743 12.6875 58.7679 12.7413 58.7521 12.7792C58.5054 13.4331 58.2618 14.0903 58.015 14.7442C57.3065 16.6398 56.5979 18.5354 55.8893 20.431C55.8545 20.5258 55.8102 20.6205 55.7659 20.7311C54.3392 20.7311 52.9189 20.7311 51.4985 20.7311C51.4637 20.7311 51.4289 20.7185 51.3783 20.709C51.3973 20.6427 51.4131 20.589 51.4321 20.5384C53.7413 14.3872 56.0538 8.23609 58.3535 2.10705C58.3852 2.08494 58.3915 2.07862 58.401 2.07546C58.4105 2.0723 58.42 2.06914 58.4294 2.06914C59.8878 2.06598 61.3492 2.06598 62.8075 2.06282C62.8645 2.06282 62.9214 2.06282 62.9784 2.06914C62.9973 2.06914 63.0132 2.08178 63.0416 2.09126C63.0922 2.16076 63.0669 2.24922 63.0606 2.32821C63.0068 3.19701 62.9499 4.06582 62.8929 4.93463C62.836 5.81291 62.7791 6.6912 62.7221 7.56948C62.6747 8.27717 62.6241 8.98485 62.5766 9.69253C62.564 9.85997 62.5513 10.0306 62.5671 10.2265C62.6557 10.1696 62.6684 10.0938 62.6905 10.0306C62.9372 9.3766 63.184 8.71947 63.4307 8.06549C64.1488 6.15412 64.8701 4.24274 65.5881 2.33136C65.6198 2.2429 65.6609 2.16076 65.6925 2.08494C66.0247 2.05335 69.8397 2.05966 70.058 2.09126C70.0611 2.11653 70.0706 2.14812 70.0611 2.1734C67.7424 8.34667 65.4236 14.5231 63.0954 20.7216Z" fill="#B4B6C4"/>
<path d="M63.7154 20.7058C63.7154 20.6774 63.7059 20.6458 63.7154 20.6237C66.0247 14.4725 68.3339 8.32455 70.6432 2.1734C70.6558 2.13865 70.678 2.11021 70.6938 2.08494C70.9311 2.05651 74.7461 2.05019 75.0529 2.07862C75.0814 2.1892 75.0181 2.27766 74.9833 2.37243C74.6164 3.35498 74.2463 4.33752 73.8793 5.32006C71.9845 10.3655 70.0896 15.4077 68.1947 20.4531C68.1631 20.5416 68.1252 20.6269 68.0935 20.7058C67.8468 20.7406 63.9558 20.7438 63.7154 20.7058Z" fill="#B4B6C4"/>
<path d="M98.0442 3.8731C97.5001 3.87626 97.1395 3.5319 97.0668 3.11171C96.994 2.69152 97.1901 2.28713 97.5792 2.10389C97.8703 1.96804 98.1644 1.96488 98.4586 2.09757C98.8446 2.27134 99.066 2.68521 98.9901 3.09591C98.911 3.52558 98.5915 3.82255 98.1613 3.86362C98.117 3.86994 98.0695 3.86994 98.0442 3.8731ZM97.6551 3.46871C97.6868 3.5003 97.7121 3.54453 97.75 3.55717C97.9304 3.62668 98.117 3.62668 98.2973 3.56033C98.3289 3.54769 98.3511 3.51926 98.3859 3.49398C98.1518 3.42132 98.155 3.42132 98.0284 3.20965C97.9968 3.15594 97.9873 3.08012 97.8924 3.08012C97.8797 3.19701 97.8671 3.31391 97.8576 3.42764C97.7754 3.4466 97.7121 3.45923 97.652 3.47503C97.6077 3.09275 97.6203 2.66625 97.6836 2.45774C97.8449 2.43878 98.0158 2.44194 98.1834 2.45774C98.2941 2.46721 98.3796 2.52724 98.4175 2.63466C98.4586 2.75155 98.4428 2.85897 98.3511 2.94743C98.3131 2.98534 98.2657 3.01377 98.2214 3.04536C98.2973 3.19385 98.3701 3.32022 98.4586 3.44028C98.7528 3.18121 98.7876 2.77998 98.5504 2.50197C98.3353 2.25238 97.962 2.19236 97.6741 2.3598C97.323 2.56515 97.3008 2.93479 97.3957 3.19701C97.4432 3.32022 97.5001 3.44344 97.6551 3.46871ZM97.8861 2.60306C97.8861 2.6852 97.8797 2.73259 97.8892 2.77367C97.8924 2.79578 97.9145 2.83369 97.9304 2.83685C97.9905 2.84001 98.0601 2.84001 98.1138 2.82105C98.1834 2.79578 98.1803 2.66625 98.1107 2.64097C98.0537 2.6157 97.9873 2.6157 97.8861 2.60306Z" fill="#B4B6C4"/>
<path d="M53.6116 25.9124C53.3048 25.9155 53.0675 25.8334 52.8714 25.6533C52.4728 25.2837 52.4539 24.3959 53.1972 24.1084C53.444 24.0136 53.6971 24.0168 53.947 24.1084C54.3487 24.2569 54.5891 24.6581 54.5417 25.1036C54.4942 25.5206 54.1652 25.8492 53.7413 25.9029C53.6844 25.9092 53.6275 25.9124 53.6116 25.9124ZM53.9849 25.4985C54.2412 25.3279 54.2886 25.0815 54.2222 24.8035C54.1557 24.5286 53.9217 24.3327 53.6338 24.3074C53.3459 24.2822 53.077 24.4275 52.9537 24.6771C52.8303 24.9298 52.8746 25.2458 53.0612 25.4416C53.0897 25.4732 53.1435 25.4827 53.1846 25.5017C53.1972 25.5238 53.2067 25.5585 53.2257 25.568C53.4946 25.6912 53.7508 25.707 53.9849 25.4985Z" fill="#B4B6C4"/>
<path d="M50.6887 14.5452C50.6919 14.5294 50.695 14.5168 50.6982 14.501C50.7077 14.5073 50.714 14.5168 50.7235 14.5231C50.7108 14.5294 50.6982 14.5326 50.6824 14.5389L50.6887 14.5452Z" fill="#B4B6C4"/>
<path d="M97.652 3.47503C97.7153 3.45923 97.7785 3.4466 97.8576 3.42764C97.8703 3.31391 97.8829 3.19701 97.8924 3.08012C97.9873 3.08012 97.9968 3.15594 98.0284 3.20965C98.1518 3.42132 98.1518 3.42132 98.3859 3.49398C98.3511 3.51926 98.3289 3.55085 98.2973 3.56033C98.1138 3.62984 97.9304 3.62983 97.75 3.55717C97.7121 3.54137 97.6868 3.49714 97.6551 3.46871L97.652 3.47503Z" fill="#B4B6C4"/>
<path d="M97.8861 2.60306C97.9905 2.61886 98.0537 2.6157 98.1107 2.63782C98.1803 2.66625 98.1803 2.79262 98.1138 2.8179C98.0569 2.84001 97.9905 2.83685 97.9304 2.83369C97.9145 2.83369 97.8924 2.79578 97.8892 2.77051C97.8797 2.72944 97.8861 2.6852 97.8861 2.60306Z" fill="#B4B6C4"/>
<path d="M53.9849 25.4985C53.7508 25.7039 53.4946 25.6881 53.2289 25.5648C53.2099 25.5554 53.2004 25.5206 53.1878 25.4985L53.1846 25.5048C53.2573 25.4922 53.3269 25.4795 53.3902 25.4701C53.4471 25.3469 53.387 25.2205 53.4503 25.0941C53.5958 25.2078 53.6053 25.3911 53.7287 25.4795C53.8236 25.489 53.9058 25.4985 53.9881 25.5048L53.9849 25.4985Z" fill="#B4B6C4"/>
<path d="M53.9881 25.508C53.9058 25.4985 53.8204 25.4922 53.7287 25.4827C53.6053 25.3911 53.5958 25.2078 53.4503 25.0973C53.387 25.2236 53.4472 25.35 53.3902 25.4732C53.3269 25.4827 53.2542 25.4953 53.1846 25.508C53.1719 25.1826 53.1751 24.854 53.1814 24.5191C53.3807 24.4654 53.5674 24.4812 53.7477 24.5033C53.8552 24.516 53.9406 24.5855 53.9628 24.6992C53.9881 24.8129 53.9818 24.9235 53.8742 25.0025C53.8394 25.0278 53.8014 25.0562 53.7603 25.0846C53.8426 25.2268 53.9153 25.369 53.9881 25.508ZM53.7002 24.7624C53.6971 24.6866 53.6401 24.6455 53.5357 24.6487C53.4535 24.6487 53.4187 24.6866 53.4218 24.7719C53.4218 24.8603 53.4693 24.8951 53.5737 24.8856C53.6591 24.8761 53.7065 24.8319 53.7002 24.7624Z" fill="#B4B6C4"/>
<path d="M53.7002 24.7624C53.7034 24.8319 53.6591 24.8761 53.5737 24.8824C53.4693 24.8919 53.4218 24.8572 53.4218 24.7687C53.4218 24.6802 53.4535 24.6455 53.5357 24.6455C53.6401 24.6455 53.6971 24.6866 53.7002 24.7624Z" fill="#B4B6C4"/>
</svg>
