<svg width="152" height="40" viewBox="0 0 152 40" fill="none" xmlns="http://www.w3.org/2000/svg">
<g clip-path="url(#clip0_2_8101)">
<path d="M41.2313 9.34929C41.1066 9.33879 38.6629 9.30155 38.6629 9.30155C38.6629 9.30155 36.6193 7.31111 36.4174 7.10863C36.3422 7.03318 36.2403 6.99402 36.1336 6.97778L36.1345 37.4254L45.2929 35.1427C45.2929 35.1427 41.556 9.80395 41.5322 9.6301C41.5084 9.45624 41.356 9.35979 41.2313 9.34929Z" fill="#B4B6C4"/>
<path fill-rule="evenodd" clip-rule="evenodd" d="M41.2304 9.3482C41.356 9.3587 41.5075 9.45515 41.5313 9.629C41.5551 9.80285 45.2919 35.1426 45.2919 35.1426L36.1327 37.4262L15 33.7606C15 33.7606 17.5217 14.2039 17.615 13.5153C17.7407 12.6041 17.7712 12.5745 18.7349 12.2708C18.7555 12.2642 19.4067 12.0619 20.4431 11.74C20.8978 11.5988 21.4267 11.4345 22.009 11.2536C22.2128 9.78948 22.9318 7.89836 23.8765 6.39312C25.2192 4.2537 26.8753 3.04932 28.538 3.00156C29.3999 2.97578 30.1188 3.26899 30.6798 3.8707C30.7197 3.91464 30.7578 3.95953 30.7959 4.00537C30.8055 4.00456 30.815 4.00373 30.8246 4.0029C30.9043 3.996 30.9835 3.98914 31.0635 3.98914H31.0683C32.3558 3.99105 33.4215 4.72743 34.149 6.11996C34.3747 6.55167 34.5328 6.98147 34.6404 7.33103C34.8046 7.28003 34.9518 7.23433 35.08 7.19453C35.4535 7.07857 35.6656 7.01274 35.667 7.01203C35.8203 6.96618 36.2146 6.90506 36.4164 7.10754C36.6183 7.31002 38.662 9.30046 38.662 9.30046C38.662 9.30046 41.1056 9.3377 41.2304 9.3482ZM32.5303 7.98614C32.9065 7.86933 33.2592 7.75982 33.5824 7.65958C33.3205 6.80573 32.6996 5.37403 31.4378 5.1343C31.8301 6.14958 31.9301 7.32435 31.9425 8.16866C32.1439 8.10612 32.3401 8.0452 32.5303 7.98614ZM27.3086 9.608L30.8369 8.51249C30.8483 7.59082 30.7483 6.22789 30.2883 5.26515C29.7988 5.46763 29.3856 5.82198 29.0904 6.14002C28.2961 6.99484 27.6495 8.29855 27.3086 9.608ZM29.5713 4.37404C29.2903 4.18876 28.9618 4.10279 28.5713 4.11139C26.0048 4.18589 23.766 8.20591 23.1936 10.885C23.7191 10.7222 24.2708 10.5508 24.8378 10.3746C25.2491 10.2468 25.6684 10.1165 26.0915 9.98526C26.4143 8.28327 27.2238 6.5192 28.2799 5.38263C28.6875 4.94424 29.1218 4.60804 29.5713 4.37404ZM29.9931 18.0636L31.0568 14.0723C31.0568 14.0723 30.1397 13.6138 28.3475 13.7294C23.6955 14.0235 21.5871 17.2862 21.7899 20.5058C21.9253 22.6551 23.1879 23.5537 24.2945 24.3412C25.1579 24.9556 25.9263 25.5024 25.9905 26.5229C26.0258 27.0855 25.6772 27.8811 24.7021 27.9432C23.2088 28.0377 21.3433 26.6261 21.3433 26.6261L20.63 29.669C20.63 29.669 22.4832 31.6604 25.8496 31.4474C28.6541 31.2698 30.6007 29.0195 30.394 25.7302C30.235 23.2011 28.4593 22.0592 27.0558 21.1566C26.1388 20.5669 25.3807 20.0794 25.3363 19.374C25.3153 19.0464 25.3372 17.7417 27.4 17.6109C28.8065 17.522 29.9931 18.0636 29.9931 18.0636Z" fill="#B4B6C4"/>
<path d="M57.3533 22.4301C56.3001 21.8569 55.7589 21.3738 55.7589 20.7097C55.7589 19.8647 56.5107 19.3219 57.6848 19.3219C59.0516 19.3219 60.2719 19.895 60.2719 19.895L61.2344 16.9375C61.2344 16.9375 60.3494 16.2432 57.7443 16.2432C54.1191 16.2432 51.6067 18.3253 51.6067 21.2525C51.6067 22.9122 52.7798 24.1797 54.3449 25.0844C55.6087 25.8082 56.0602 26.3216 56.0602 27.0757C56.0602 27.8601 55.4283 28.4938 54.2552 28.4938C52.5068 28.4938 50.8558 27.5882 50.8558 27.5882L49.8329 30.5457C49.8329 30.5457 51.3583 31.5716 53.9246 31.5716C57.6555 31.5716 60.3333 29.731 60.3333 26.4116C60.3324 24.6326 58.9789 23.365 57.3533 22.4301Z" fill="#B4B6C4"/>
<path d="M72.2167 16.2138C70.3814 16.2138 68.9372 17.0891 67.8245 18.4163L67.764 18.3859L69.3584 10.0278H65.2062L61.1749 31.3007H65.3271L66.7109 24.0291C67.2521 21.2829 68.666 19.5938 69.9903 19.5938C70.9226 19.5938 71.2843 20.2275 71.2843 21.1332C71.2843 21.7063 71.2239 22.4007 71.1039 22.9738L69.5398 31.3016H73.6922L75.3163 22.7019C75.4971 21.7963 75.6178 20.7107 75.6178 19.986C75.6161 17.6319 74.3827 16.2138 72.2167 16.2138Z" fill="#B4B6C4"/>
<path d="M85.003 16.2136C80.0081 16.2136 76.6997 20.7399 76.6997 25.7787C76.6997 29.0071 78.6848 31.6018 82.416 31.6018C87.32 31.6018 90.6296 27.1968 90.6296 22.0368C90.6296 19.0499 88.8841 16.2136 85.003 16.2136ZM82.9572 28.4046C81.543 28.4046 80.9412 27.1977 80.9412 25.6886C80.9412 23.3052 82.1752 19.4127 84.4315 19.4127C85.9058 19.4127 86.3863 20.6802 86.3863 21.9174C86.3863 24.4818 85.1541 28.4046 82.9572 28.4046Z" fill="#B4B6C4"/>
<path d="M101.25 16.2136C98.4472 16.2136 96.8568 18.688 96.8568 18.688H96.7973L97.0381 16.4552H93.3676C93.1874 17.9643 92.8556 20.2568 92.5255 21.9771L89.637 37.2146H93.7892L94.9317 31.059H95.0227C95.0227 31.059 95.8745 31.6018 97.4598 31.6018C102.333 31.6018 105.522 26.5934 105.522 21.5234C105.522 18.7184 104.288 16.2136 101.25 16.2136ZM97.2784 28.4643C96.2006 28.4643 95.5627 27.8608 95.5627 27.8608L96.255 23.9684C96.7367 21.3737 98.0902 19.6533 99.5348 19.6533C100.799 19.6533 101.189 20.8299 101.189 21.9468C101.189 24.6324 99.5948 28.4643 97.2784 28.4643Z" fill="#B4B6C4"/>
<path d="M111.449 10.239C110.126 10.239 109.073 11.2953 109.073 12.6528C109.073 13.89 109.855 14.735 111.028 14.735H111.088C112.382 14.735 113.495 13.8596 113.525 12.3212C113.525 11.1143 112.713 10.239 111.449 10.239Z" fill="#B4B6C4"/>
<path d="M105.643 31.3005H109.794L112.623 16.5461H108.441L105.643 31.3005Z" fill="#B4B6C4"/>
<path d="M123.183 16.5159H120.295L120.445 15.8216C120.686 14.4034 121.528 13.1359 122.912 13.1359C123.651 13.1359 124.235 13.3472 124.235 13.3472L125.048 10.0884C125.048 10.0884 124.326 9.72656 122.791 9.72656C121.317 9.72656 119.843 10.149 118.73 11.1143C117.315 12.3213 116.653 14.0709 116.323 15.8216L116.203 16.5159H114.277L113.675 19.6544H115.601L113.405 31.3016H117.557L119.754 19.6544H122.612L123.183 16.5159Z" fill="#B4B6C4"/>
<path d="M133.172 16.5461C133.172 16.5461 130.576 23.1043 129.411 26.6843H129.35C129.271 25.5314 128.327 16.5461 128.327 16.5461H123.964L126.463 30.0936C126.523 30.3949 126.493 30.5768 126.372 30.788C125.89 31.723 125.078 32.6286 124.115 33.2927C123.333 33.8658 122.461 34.2277 121.769 34.4692L122.912 37.9999C123.755 37.819 125.499 37.1246 126.973 35.7368C128.869 33.9567 130.614 31.2105 132.419 27.4686L137.503 16.5452H133.172V16.5461Z" fill="#B4B6C4"/>
</g>
<defs>
<clipPath id="clip0_2_8101">
<rect width="123" height="35" fill="white" transform="translate(15 3)"/>
</clipPath>
</defs>
</svg>
