<svg width="152" height="40" viewBox="0 0 152 40" fill="none" xmlns="http://www.w3.org/2000/svg">
<path d="M52.238 29.6377L53.9187 25.7826C55.7349 27.1212 58.1476 27.8172 60.5331 27.8172C62.2952 27.8172 63.4066 27.1479 63.4066 26.1306C63.3795 23.2928 52.8614 25.5149 52.7801 18.3936C52.753 14.7794 56.006 11.9952 60.6145 11.9952C63.3524 11.9952 66.0904 12.6645 68.0422 14.1904L66.4699 18.1259C64.6807 17.0015 62.4578 16.1983 60.3434 16.1983C58.9066 16.1983 57.9578 16.8676 57.9578 17.7243C57.9849 20.5086 68.5843 18.9826 68.6928 25.7826C68.6928 29.4771 65.5211 32.0739 60.9669 32.0739C57.6325 32.0739 54.5693 31.2975 52.238 29.6377ZM116.729 24.3904C115.889 25.8361 114.316 26.8267 112.5 26.8267C109.816 26.8267 107.648 24.6849 107.648 22.0345C107.648 19.3841 109.816 17.2424 112.5 17.2424C114.316 17.2424 115.889 18.233 116.729 19.6786L121.364 17.1353C119.63 14.0834 116.295 11.9952 112.5 11.9952C106.889 11.9952 102.334 16.4928 102.334 22.0345C102.334 27.5763 106.889 32.0739 112.5 32.0739C116.322 32.0739 119.63 30.0125 121.364 26.9338L116.729 24.3904ZM71.0241 3.66919H76.8253V31.6991H71.0241V3.66919ZM123.642 3.66919V31.6991H129.443V23.2928L136.328 31.6991H143.756L135 21.7133L143.105 12.3967H136.003L129.443 20.1338V3.66919H123.642ZM94.0663 24.444C93.2259 25.8093 91.491 26.8267 89.5392 26.8267C86.8554 26.8267 84.6868 24.6849 84.6868 22.0345C84.6868 19.3841 86.8554 17.2424 89.5392 17.2424C91.491 17.2424 93.2259 18.3133 94.0663 19.7054V24.444ZM94.0663 12.3967V14.6723C93.1175 13.0928 90.759 11.9952 88.2922 11.9952C83.1958 11.9952 79.1837 16.4393 79.1837 22.0078C79.1837 27.5763 83.1958 32.0739 88.2922 32.0739C90.759 32.0739 93.1175 30.9763 94.0663 29.3967V31.6723H99.8675V12.3967H94.0663Z" fill="#B4B6C4"/>
<path d="M16.3739 24.4174C16.3739 26.3717 14.7745 27.9513 12.7956 27.9513C10.8167 27.9513 9.2173 26.3717 9.2173 24.4174C9.2173 22.4631 10.8167 20.8835 12.7956 20.8835H16.3739V24.4174ZM18.1631 24.4174C18.1631 22.4631 19.7625 20.8835 21.7414 20.8835C23.7203 20.8835 25.3197 22.4631 25.3197 24.4174V33.252C25.3197 35.2064 23.7203 36.7859 21.7414 36.7859C19.7625 36.7859 18.1631 35.2064 18.1631 33.252V24.4174Z" fill="#B4B6C4"/>
<path d="M21.741 10.2284C19.7621 10.2284 18.1627 8.64883 18.1627 6.6945C18.1627 4.74017 19.7621 3.16064 21.741 3.16064C23.7199 3.16064 25.3193 4.74017 25.3193 6.6945V10.2284H21.741ZM21.741 12.0221C23.7199 12.0221 25.3193 13.6016 25.3193 15.5559C25.3193 17.5103 23.7199 19.0898 21.741 19.0898H12.7681C10.7892 19.0898 9.18979 17.5103 9.18979 15.5559C9.18979 13.6016 10.7892 12.0221 12.7681 12.0221H21.741Z" fill="#B4B6C4"/>
<path d="M36.0814 15.5559C36.0814 13.6016 37.6808 12.0221 39.6597 12.0221C41.6386 12.0221 43.238 13.6016 43.238 15.5559C43.238 17.5103 41.6386 19.0898 39.6597 19.0898H36.0814V15.5559ZM34.2922 15.5559C34.2922 17.5103 32.6928 19.0898 30.7139 19.0898C28.735 19.0898 27.1356 17.5103 27.1356 15.5559V6.6945C27.1356 4.74017 28.735 3.16064 30.7139 3.16064C32.6928 3.16064 34.2922 4.74017 34.2922 6.6945V15.5559Z" fill="#B4B6C4"/>
<path d="M30.7139 29.7182C32.6928 29.7182 34.2922 31.2977 34.2922 33.252C34.2922 35.2064 32.6928 36.7859 30.7139 36.7859C28.735 36.7859 27.1356 35.2064 27.1356 33.252V29.7182H30.7139ZM30.7139 27.9513C28.735 27.9513 27.1356 26.3717 27.1356 24.4174C27.1356 22.4631 28.735 20.8835 30.7139 20.8835H39.6868C41.6657 20.8835 43.2651 22.4631 43.2651 24.4174C43.2651 26.3717 41.6657 27.9513 39.6868 27.9513H30.7139Z" fill="#B4B6C4"/>
</svg>
